<?xml version="1.0" standalone="no"?>
<!DOCTYPE svg PUBLIC "-//W3C//DTD SVG 20010904//EN"
 "http://www.w3.org/TR/2001/REC-SVG-20010904/DTD/svg10.dtd">
<svg version="1.0" xmlns="http://www.w3.org/2000/svg"
 width="200.000000pt" height="200.000000pt" viewBox="0 0 200.000000 200.000000"
 preserveAspectRatio="xMidYMid meet">
<metadata>
Created by potrace 1.16, written by Peter Selinger 2001-2019
</metadata>
<g transform="translate(0.000000,200.000000) scale(0.100000,-0.100000)"
fill="#000000" stroke="none">
<path d="M0 1000 l0 -1000 1000 0 1000 0 0 1000 0 1000 -1000 0 -1000 0 0
-1000z m1070 903 l62 -37 -5 -40 c-4 -23 -9 -56 -13 -73 l-6 -33 161 0 161 0
77 55 78 55 16 -52 16 -53 52 -3 51 -3 0 -42 c0 -113 -22 -387 -40 -493 l-19
-119 22 -22 c12 -12 47 -35 77 -50 49 -26 56 -33 62 -68 4 -22 4 -62 1 -90 -4
-46 -2 -52 26 -79 40 -39 39 -67 -5 -127 -33 -45 -39 -49 -77 -50 -23 0 -51
-4 -62 -9 -18 -7 -19 -8 -2 -15 13 -5 17 -19 17 -55 0 -45 -3 -51 -44 -84 -50
-41 -64 -43 -125 -15 -31 13 -48 16 -55 9 -5 -5 -18 -10 -27 -10 -26 0 -32
-30 -10 -54 19 -21 19 -21 -5 -58 -19 -30 -31 -38 -53 -38 -22 0 -30 -6 -35
-23 -9 -36 -49 -50 -89 -32 -18 8 -42 22 -54 31 -21 15 -22 14 -48 -36 -14
-28 -37 -56 -50 -62 -14 -6 -29 -26 -35 -44 l-12 -34 -78 0 -78 0 -12 34 c-6
18 -21 38 -35 44 -13 6 -36 34 -50 62 -26 52 -31 53 -70 20 -44 -38 -110 -29
-121 16 -4 16 -14 24 -36 26 -23 2 -36 12 -51 40 -21 35 -21 37 -3 57 21 23
15 51 -12 51 -10 0 -23 5 -29 11 -9 9 -18 8 -36 -4 -13 -8 -40 -19 -60 -22
-32 -6 -42 -3 -82 30 -42 35 -45 41 -45 85 0 36 4 50 17 55 17 7 16 8 -2 15
-11 5 -39 9 -62 9 -38 1 -45 5 -73 45 -38 56 -40 103 -6 136 23 20 25 30 24
102 0 90 10 109 77 138 22 10 50 28 62 41 l22 24 -19 111 c-20 117 -40 349
-40 471 l0 72 52 3 52 3 12 48 c7 27 14 50 16 53 2 2 38 -21 80 -51 l76 -55
162 0 163 0 -7 33 c-23 112 -24 109 40 150 33 20 64 36 71 37 6 0 39 -17 73
-37z"/>
<path d="M935 1889 c-27 -18 -51 -32 -52 -33 -1 -1 5 -30 12 -66 8 -36 14 -68
15 -72 0 -5 -80 -8 -178 -8 l-178 0 -62 45 c-34 25 -64 45 -67 45 -2 0 -10
-20 -16 -45 l-11 -45 -49 0 -49 0 0 -107 c0 -351 73 -698 198 -948 68 -136
200 -320 217 -303 4 4 -13 31 -38 60 -215 253 -336 633 -354 1111 l-6 167 44
0 44 -1 74 -164 74 -165 93 -52 c131 -74 129 -88 -11 -88 -110 0 -111 0 -99
-47 6 -22 11 -23 106 -23 l99 0 -26 -37 c-20 -30 -25 -50 -25 -95 0 -50 3 -60
24 -73 39 -26 57 -85 46 -146 -6 -28 -10 -53 -10 -55 0 -2 -20 -4 -45 -4 -25
0 -45 -2 -45 -5 0 -4 7 -19 15 -35 13 -25 22 -30 51 -30 39 0 83 -39 84 -76 0
-25 40 -147 51 -154 4 -3 8 -28 10 -56 3 -40 0 -57 -15 -72 -18 -21 -18 -21
17 -35 50 -22 52 -34 6 -40 -22 -3 -43 -8 -46 -11 -12 -12 21 -68 49 -82 16
-8 34 -28 40 -45 10 -28 12 -29 78 -29 66 0 68 1 78 29 6 17 24 37 40 45 35
18 60 75 40 88 -7 4 -28 8 -46 8 -41 0 -34 16 15 37 l35 14 -19 22 c-15 18
-19 33 -15 74 2 29 8 53 13 53 5 0 12 0 17 0 26 2 149 150 202 243 l32 57 -70
0 c-78 0 -75 -2 -87 75 -7 50 14 105 50 129 22 14 25 23 25 74 0 45 -5 65 -25
95 l-26 37 191 0 190 0 -5 -22 c-2 -13 -11 -52 -19 -88 -52 -232 -149 -444
-277 -605 -33 -42 -58 -80 -54 -83 15 -15 156 180 215 297 65 130 129 329 156
484 l6 37 -206 0 c-176 0 -206 2 -206 15 0 13 30 15 209 15 l208 0 12 93 c7
50 15 165 18 255 l6 162 -50 0 -51 0 -11 45 c-6 25 -13 45 -16 45 -2 0 -33
-20 -68 -45 l-65 -45 -177 0 -177 0 6 23 c3 12 9 45 12 74 l7 51 -49 31 c-27
17 -56 31 -64 31 -8 0 -37 -14 -65 -31z m-20 -221 c11 -47 35 -184 35 -198 0
-9 -18 -22 -44 -32 l-43 -16 -134 134 -134 134 157 0 c155 0 158 0 163 -22z
m356 -112 l-134 -134 -43 16 c-28 10 -44 22 -44 33 0 18 28 173 36 202 5 15
21 17 162 17 l157 0 -134 -134z m409 52 c0 -88 -16 -301 -26 -355 l-6 -33
-194 0 c-178 0 -194 1 -194 18 0 11 31 35 94 70 l93 52 74 165 74 164 43 1 42
0 0 -82z m-663 -326 c9 -5 16 -66 24 -186 11 -176 11 -179 -12 -227 -12 -27
-25 -49 -29 -49 -4 0 -17 22 -30 49 -22 49 -23 51 -12 227 12 188 20 211 59
186z m-267 -97 c0 -13 -15 -15 -97 -13 -66 2 -98 7 -101 16 -3 9 21 12 97 12
84 0 101 -3 101 -15z m85 -322 c4 -14 2 -23 -4 -23 -13 0 -31 33 -31 56 0 16
2 16 14 4 8 -8 17 -25 21 -37z m356 4 c-11 -28 -31 -37 -31 -14 0 18 33 63 37
50 2 -5 -1 -22 -6 -36z m-431 -162 c0 -10 -10 -15 -29 -15 -16 0 -31 6 -35 15
-4 12 3 15 29 15 24 0 35 -5 35 -15z m585 -12 c-74 -116 -158 -214 -172 -200
-10 11 17 119 38 148 10 15 21 39 25 53 6 24 10 26 66 26 l60 0 -17 -27z"/>
<path d="M1257 703 c-4 -3 -7 -14 -7 -24 0 -10 -11 -30 -23 -46 -13 -15 -27
-48 -30 -73 l-7 -45 31 35 c33 37 109 145 109 154 0 8 -65 7 -73 -1z"/>
</g>
</svg>
